<?xml version="1.0" standalone="no"?>
<!DOCTYPE svg PUBLIC "-//W3C//DTD SVG 20010904//EN"
 "http://www.w3.org/TR/2001/REC-SVG-20010904/DTD/svg10.dtd">
<svg version="1.0" xmlns="http://www.w3.org/2000/svg"
 width="16.000000pt" height="16.000000pt" viewBox="0 0 16.000000 16.000000"
 preserveAspectRatio="xMidYMid meet">
<metadata>
Created by potrace 1.11, written by Peter Selinger 2001-2013
</metadata>
<g transform="translate(0.000000,16.000000) scale(0.002186,-0.002186)"
fill="#000000" stroke="none">
<path d="M3780 4033 c0 -3159 1 -3279 19 -3318 36 -78 104 -112 179 -90 54 17
80 39 103 90 18 38 19 102 19 1413 l0 1372 1399 0 c769 0 1413 -3 1431 -7 l33
-6 -7 -106 c-20 -335 -122 -751 -262 -1069 -168 -381 -380 -689 -684 -992
-533 -534 -1141 -831 -1909 -931 -322 -42 -722 -36 -1027 16 -1055 179 -1916
812 -2379 1750 -172 350 -269 662 -322 1035 -25 178 -25 718 0 904 56 411 157
746 329 1089 237 475 569 864 988 1162 323 229 714 405 1125 509 146 36 342
76 376 76 19 0 19 -33 19 -2985 l0 -2985 -27 0 c-15 0 -91 16 -170 35 -717
177 -1284 568 -1666 1150 -86 132 -219 392 -267 525 -72 197 -144 543 -170
815 -13 137 -29 179 -80 207 -73 38 -175 7 -217 -68 -28 -48 -30 -147 -8 -336
57 -492 266 -1015 573 -1438 507 -696 1273 -1118 2240 -1233 l112 -14 0 3256
c0 2333 -3 3267 -11 3296 -14 50 -64 100 -114 114 -21 5 -41 8 -45 6 -4 -3
-74 -14 -156 -25 -1045 -146 -1848 -615 -2471 -1445 -319 -426 -543 -919 -643
-1415 -25 -122 -60 -362 -60 -407 0 -7 -7 -13 -15 -13 -13 0 -15 -34 -15 -249
0 -152 4 -251 10 -253 5 -1 16 -68 25 -148 81 -743 332 -1372 764 -1910 381
-475 907 -877 1452 -1108 348 -148 676 -227 1112 -267 37 -4 67 -11 67 -16 0
-5 83 -9 195 -9 113 0 195 4 195 9 0 5 24 12 53 15 28 3 104 10 167 16 737 72
1407 360 1971 847 111 97 329 316 420 423 509 599 800 1315 859 2115 5 77 14
141 20 143 13 5 13 259 0 264 -5 2 -15 62 -20 133 -31 384 -116 731 -262 1074
-189 446 -502 892 -876 1252 -581 558 -1281 873 -2167 973 -71 8 -131 19 -133
25 -2 6 -19 11 -38 11 l-34 0 0 -3277z m517 2877 c114 -22 323 -75 351 -89 9
-5 39 -14 67 -20 27 -7 52 -16 55 -20 3 -5 22 -11 43 -15 20 -4 37 -11 37 -16
0 -6 9 -10 20 -10 11 0 28 -4 38 -9 28 -14 65 -29 90 -36 12 -4 22 -10 22 -15
0 -5 15 -12 33 -15 37 -9 164 -70 184 -90 7 -7 29 -19 48 -25 19 -6 35 -15 35
-20 0 -5 16 -14 35 -20 19 -6 35 -16 35 -21 0 -5 7 -9 15 -9 8 0 15 -4 15 -10
0 -5 11 -12 25 -16 14 -3 25 -10 25 -15 0 -5 7 -9 15 -9 8 0 15 -4 15 -10 0
-5 7 -10 15 -10 8 0 15 -4 15 -10 0 -5 7 -10 15 -10 8 0 15 -4 15 -10 0 -5 6
-10 14 -10 8 0 16 -7 20 -15 3 -8 12 -15 21 -15 8 0 15 -4 15 -10 0 -5 7 -10
15 -10 8 0 19 -9 25 -20 6 -11 17 -20 24 -20 8 0 16 -7 20 -15 3 -8 12 -15 20
-15 9 0 20 -9 26 -20 6 -11 16 -20 23 -20 7 0 23 -13 35 -30 13 -16 26 -30 31
-30 10 0 301 -291 301 -301 0 -4 14 -19 30 -32 17 -14 30 -30 30 -36 0 -6 11
-18 25 -27 14 -9 25 -23 25 -30 0 -8 7 -17 15 -20 8 -4 15 -12 15 -20 0 -7 9
-18 20 -24 11 -6 20 -17 20 -25 0 -8 5 -15 10 -15 6 0 10 -7 10 -15 0 -9 7
-18 15 -21 8 -4 15 -12 15 -20 0 -8 5 -14 10 -14 6 0 10 -7 10 -15 0 -8 5 -15
10 -15 6 0 10 -7 10 -15 0 -8 5 -15 10 -15 6 0 10 -7 10 -15 0 -8 5 -15 10
-15 6 0 10 -7 10 -15 0 -8 4 -15 9 -15 5 0 12 -11 15 -25 4 -14 11 -25 16 -25
6 0 10 -6 10 -14 0 -8 6 -21 14 -29 8 -8 22 -31 31 -53 9 -21 20 -41 24 -44
12 -7 87 -160 95 -194 4 -15 14 -35 21 -43 8 -8 15 -25 15 -39 0 -13 5 -24 10
-24 6 0 10 -11 10 -25 0 -14 4 -25 10 -25 5 0 12 -17 16 -37 4 -21 10 -40 14
-43 10 -8 50 -131 50 -156 0 -13 5 -26 10 -29 6 -3 10 -19 10 -34 0 -15 4 -31
9 -36 19 -20 100 -439 101 -526 1 -13 3 -63 6 -111 l5 -88 -1431 0 -1430 0 0
1550 0 1550 44 0 c25 0 94 -9 153 -20z"/>
</g>
</svg>
