<svg width="320" height="213" viewBox="0 0 320 213" version="1.1" xmlns="http://www.w3.org/2000/svg" xmlns:xlink="http://www.w3.org/1999/xlink" xmlns:figma="http://www.figma.com/figma/ns">
<title>Subtract</title>
<desc>Created using Figma</desc>
<g id="Canvas" transform="translate(298 270)" figma:type="canvas">
<g id="Subtract" figma:type="vector-operation">
<use xlink:href="#path0_fill" transform="translate(-298 -270)" fill="#4F4F4F"/>
</g>
</g>
<defs>
<path id="path0_fill" fill-rule="evenodd" d="M 320 0L 0 0L 0 213L 320 213L 320 0ZM 115.971 30.6439L 77 8.03772L 38.0289 30.6439L 38.0289 75.8561L 77 98.4623L 115.971 75.8561L 115.971 30.6439ZM 240 11.0519L 278.971 33.658L 278.971 78.8703L 240 101.476L 201.029 78.8703L 201.029 33.658L 240 11.0519ZM 147.971 139.153L 109 116.547L 70.0289 139.153L 70.0289 184.366L 109 206.972L 147.971 184.366L 147.971 139.153ZM 201 82.3868L 226.981 97.4575L 226.981 127.599L 201 142.67L 175.019 127.599L 175.019 97.4575L 201 82.3868ZM 297.981 137.646L 272 122.575L 246.019 137.646L 246.019 167.788L 272 182.858L 297.981 167.788L 297.981 137.646ZM 147 68.3207L 172.981 83.3915L 172.981 113.533L 147 128.604L 121.019 113.533L 121.019 83.3915L 147 68.3207ZM 196.981 19.0896L 171 4.01886L 145.019 19.0896L 145.019 49.2311L 171 64.3019L 196.981 49.2311L 196.981 19.0896ZM 191 142.67L 216.981 157.741L 216.981 187.882L 191 202.953L 165.019 187.882L 165.019 157.741L 191 142.67ZM 59.9808 91.4293L 34 76.3585L 8.01924 91.4293L 8.01924 121.571L 34 136.642L 59.9808 121.571L 59.9808 91.4293ZM 40 137L 65.9808 152.071L 65.9808 182.212L 40 197.283L 14.0192 182.212L 14.0192 152.071L 40 137ZM 198.99 66.8137L 186 59.2783L 173.01 66.8137L 173.01 81.8845L 186 89.4198L 198.99 81.8845L 198.99 66.8137ZM 132 43.2028L 144.99 50.7382L 144.99 65.809L 132 73.3444L 119.01 65.809L 119.01 50.7382L 132 43.2028ZM 176.99 131.116L 164 123.58L 151.01 131.116L 151.01 146.186L 164 153.722L 176.99 146.186L 176.99 131.116ZM 228 130.613L 240.99 138.149L 240.99 153.219L 228 160.755L 215.01 153.219L 215.01 138.149L 228 130.613ZM 246.99 171.535L 234 164L 221.01 171.535L 221.01 186.606L 234 194.142L 246.99 186.606L 246.99 171.535ZM 243 104.491L 255.99 112.026L 255.99 127.097L 243 134.632L 230.01 127.097L 230.01 112.026L 243 104.491ZM 288.99 92.9363L 276 85.4009L 263.01 92.9363L 263.01 108.007L 276 115.542L 288.99 108.007L 288.99 92.9363ZM 295 62.2925L 307.99 69.8279L 307.99 84.8986L 295 92.434L 282.01 84.8986L 282.01 69.8279L 295 62.2925ZM 315.99 111.535L 303 104L 290.01 111.535L 290.01 126.606L 303 134.142L 315.99 126.606L 315.99 111.535ZM 291 6L 303.99 13.5354L 303.99 28.6061L 291 36.1415L 278.01 28.6061L 278.01 13.5354L 291 6ZM 318.99 41.6958L 306 34.1604L 293.01 41.6958L 293.01 56.7665L 306 64.3019L 318.99 56.7665L 318.99 41.6958ZM 77 100.472L 89.9904 108.007L 89.9904 123.078L 77 130.613L 64.0096 123.078L 64.0096 108.007L 77 100.472ZM 27.9904 60.7854L 15 53.25L 2.00961 60.7854L 2.00961 75.8561L 15 83.3915L 27.9904 75.8561L 27.9904 60.7854ZM 22 25.1179L 34.9904 32.6533L 34.9904 47.7241L 22 55.2594L 9.00961 47.7241L 9.00961 32.6533L 22 25.1179ZM 119.99 90.9269L 107 83.3915L 94.0096 90.9269L 94.0096 105.998L 107 113.533L 119.99 105.998L 119.99 90.9269Z"/>
</defs>
</svg>
